<mxfile host="app.diagrams.net" modified="2024-06-02T20:47:11.358Z" agent="Mozilla/5.0 (Windows NT 10.0; Win64; x64) AppleWebKit/537.36 (KHTML, like Gecko) Chrome/122.0.0.0 Safari/537.36 Herring/90.1.1137.2" version="24.4.13" etag="u9Vq8tkEO_3XZ4yWfWxR" type="github">
  <diagram name="Page-1" id="mguWySxMZ7dxaN3mGSGQ">
    <mxGraphModel>
      <root>
        <mxCell id="0" />
        <mxCell id="1" parent="0" />
      </root>
    </mxGraphModel>
  </diagram>
</mxfile>
